<svg xmlns="http://www.w3.org/2000/svg" viewBox="0 0 4 4" width="16" height="16">
    <path d="M 0 0 L 1 0 L 1 1 L 0 1 Z" fill="currentColor"></path>
    <path d="M 1 1 L 2 1 L 2 2 L 1 2 Z" fill="currentColor"></path>
    <path d="M 0 2 L 1 2 L 1 3 L 0 3 Z" fill="currentColor"></path>
    <path d="M 1 3 L 2 3 L 2 4 L 1 4 Z" fill="currentColor"></path>
    <path d="M 2 0 L 3 0 L 3 1 L 2 1 Z" fill="currentColor"></path>
    <path d="M 3 0 L 4 0 L 4 1 L 3 1 Z" fill="currentColor"></path>
    <path d="M 2 2 L 3 2 L 3 3 L 2 3 Z" fill="currentColor"></path>
    <path d="M 3 2 L 4 2 L 4 3 L 3 3 Z" fill="currentColor"></path>
    <path d="M 3 3 L 4 3 L 4 4 L 3 4 Z" fill="currentColor"></path>
</svg>
